<svg xmlns="http://www.w3.org/2000/svg" xmlns:xlink="http://www.w3.org/1999/xlink" version="1.1" id="Your_Icon" x="0px" y="0px" width="100px" height="100px" viewBox="0 0 100 100" enable-background="new 0 0 100 100" xml:space="preserve" >
<path d="M77.609,33.02c0,3.527-2.133,6.386-4.765,6.386c-0.202,0-0.392-0.048-0.587-0.079C69.984,53.016,61.155,63.236,50.59,63.236  c-10.568,0-19.396-10.221-21.669-23.909c-0.195,0.03-0.385,0.079-0.587,0.079c-2.633,0-4.765-2.859-4.765-6.386  c0-3.526,2.132-6.385,4.765-6.385c0.138,0,0.263,0.039,0.399,0.053C30.665,12.384,39.708,1.551,50.59,1.551  c10.881,0,19.923,10.833,21.855,25.137c0.136-0.014,0.261-0.053,0.399-0.053C75.477,26.634,77.609,29.493,77.609,33.02z   M57.087,67.93H43.731l6.678,10.591L57.087,67.93z M65.956,66.938H65.59l-9.38,25.798v-3.033c0-3.141-5.801-10.031-5.801-10.031  s-5.803,6.891-5.803,10.031v3.459l-9.38-26.224H34.86c-18.803,0-34.043,7.785-34.043,28.1V100h43.789h2.449h6.515h2.641H100v-4.962  C100,74.724,84.758,66.938,65.956,66.938z"/>
</svg>