<svg xmlns="http://www.w3.org/2000/svg" xmlns:xlink="http://www.w3.org/1999/xlink" version="1.1" x="0px" y="0px" width="100px" height="100px" viewBox="0 0 100 100" enable-background="new 0 0 100 100" xml:space="preserve">
<g id="Captions">
</g>
<g id="Your_Icon">
	<g>
		<path fill="#000000" d="M64.156,3.103H34.145c-8.202,0-14.846,6.648-14.846,14.849v63.245c0,8.205,6.644,14.848,14.846,14.848    h30.012C72.354,96.044,79,89.401,79,81.196V17.951C79,9.751,72.354,3.103,64.156,3.103z M49.148,88.944    c-2.496,0-4.518-2.024-4.518-4.52c0-2.497,2.021-4.519,4.518-4.519c2.495,0,4.516,2.021,4.516,4.519    C53.664,86.92,51.644,88.944,49.148,88.944z M73.352,66.354c0,4.275-3.47,7.747-7.744,7.747H32.69    c-4.278,0-7.745-3.472-7.745-7.747V27.31c0-4.277,3.467-7.75,7.745-7.75h32.917c4.274,0,7.744,3.473,7.744,7.75V66.354z"/>
	</g>
</g>
</svg>