<svg xmlns="http://www.w3.org/2000/svg" xmlns:xlink="http://www.w3.org/1999/xlink" version="1.1" id="Layer_1" x="0px" y="0px" width="100px" height="99.864px" viewBox="0 0 100 99.864" enable-background="new 0 0 100 99.864" xml:space="preserve">
<path fill="#000000" d="M38.46,68.517c1.848,4.726,6.157,8.078,11.54,8.078c5.38,0,9.691-3.353,11.54-8.078H38.46z"/>
<path fill="#000000" d="M44.229,52.938c0,2.231-1.808,4.039-4.039,4.039c-2.23,0-4.038-1.808-4.038-4.039  c0-2.23,1.808-4.038,4.038-4.038C42.422,48.9,44.229,50.708,44.229,52.938"/>
<path fill="#000000" d="M63.848,52.938c0,2.231-1.808,4.039-4.039,4.039s-4.039-1.808-4.039-4.039c0-2.23,1.808-4.038,4.039-4.038  S63.848,50.708,63.848,52.938"/>
<path fill="#000000" d="M69.415,38.389c-0.87-2.341-3.271-7.574-8.522-11.789c-0.745-0.6-1.834-0.477-2.434,0.268  c-0.598,0.745-0.48,1.835,0.266,2.434c1.328,1.063,2.437,2.212,3.379,3.352c-3.514-3.103-8.328-6.555-13.327-7.688  c-0.645-0.149-1.316,0.087-1.731,0.601c-0.415,0.516-0.5,1.221-0.221,1.819l1.23,2.64c-1.677-0.498-3.681-0.919-5.633-0.919  c-1.532,0-2.898,0.26-4.059,0.773c-4.035,1.784-6.586,4.654-7.177,7.934c-5.461,5.059-8.883,12.288-8.883,20.319  c0,15.296,12.399,27.696,27.696,27.696c15.295,0,27.696-12.4,27.696-27.696C77.696,50.401,74.524,43.413,69.415,38.389 M50,81.211  c-12.726,0-23.08-10.354-23.08-23.08c0-5.677,2.066-10.872,5.479-14.896c1.489,1.729,4.172,2.681,7.805,2.681  c1.068,0,1.821-0.087,1.854-0.092c0.836-0.098,1.482-0.786,1.525-1.629s-0.527-1.594-1.35-1.778c-0.003,0-0.258-0.106-0.382-0.326  c-0.187-0.334-0.14-0.972,0.129-1.746c0.286-0.83,1.161-3.353,6.958-3.353c6.272,0,14.215,2.976,16.201,3.76  c4.854,4.235,7.94,10.447,7.94,17.379C73.08,70.858,62.726,81.211,50,81.211"/>
</svg>