<svg xmlns="http://www.w3.org/2000/svg" xmlns:xlink="http://www.w3.org/1999/xlink" version="1.1" id="Layer_1" x="0px" y="0px" width="100px" height="99.774px" viewBox="0 0 100 99.774" enable-background="new 0 0 100 99.774" xml:space="preserve">
<g>
	<path d="M82.107,31.929L82.107,31.929c-2.094,0-5.1-0.792-7.539-4.568c-1.906-2.959-2.469-5.666-1.662-8.042   c1.248-3.694,5.344-5.168,6.884-5.724c4.089-1.466,8.468,0.098,10.932,3.775c1.69,2.524,2.158,5.512,1.218,7.796   C90.6,28.419,86.461,31.929,82.107,31.929z M82.985,17.192c-0.577,0-1.178,0.111-1.782,0.328c-1.022,0.369-3.743,1.348-4.346,3.135   c-0.379,1.113,0.032,2.608,1.218,4.445c1.136,1.765,2.494,2.659,4.032,2.659c2.635,0.001,5.258-2.434,5.975-4.179   c0.403-0.982,0.073-2.545-0.826-3.888C86.752,18.94,85.329,17.192,82.985,17.192z"/>
	<path d="M42.468,51.807C42.467,51.807,42.467,51.807,42.468,51.807c-2.907-0.002-5.252-1.319-6.606-3.713   c-2.32-4.103-1.585-7.133-0.562-8.953c1.938-3.445,6.03-4.802,8.309-4.874l0.252-0.004c1.562,0,6.814,0.562,8.801,7.786   c0.484,1.768,0.034,3.679-1.265,5.384C49.433,50.008,45.762,51.807,42.468,51.807z M43.861,38.433   c-1.512,0.046-3.955,1.025-4.926,2.751c-0.724,1.287-0.537,2.921,0.558,4.856c0.607,1.072,1.58,1.595,2.975,1.595   c0.001,0,0.001,0,0.001,0c2.012,0,4.425-1.174,5.612-2.732c0.349-0.457,0.729-1.131,0.559-1.75   C47.51,39.047,45.161,38.433,43.861,38.433z"/>
	<path d="M88.693,99.774c-0.986,0-1.861-0.701-2.049-1.705L83.61,81.76c-4.179,0.31-14.406,1.079-20.324,1.684   c-6.228,0.63-10.83-1.794-13.698-7.228c-1.246-2.354-3.463-9.282-5.256-15.052l-0.137-0.436c-0.566-1.822-0.161-3.668,1.143-5.197   c2.051-2.409,6.08-3.651,8.562-3.293c2.675,0.383,4.369,2.632,5.728,4.439c0.427,0.566,0.867,1.153,1.228,1.516   c1.82,0.285,8.867-1.556,11.567-2.257c1.413-0.366,2.597-0.672,3.327-0.824c2.411-0.503,4.704,0.584,5.711,2.702   c1.01,2.128,0.378,4.541-1.605,6.146c-2.156,1.747-8.202,3.305-16.613,5.107c-0.998,0.216-1.735,0.37-2.061,0.458   c-4.996,1.334-7.69-2.633-8.837-4.327l-0.27-0.396c-0.664-0.94-0.439-2.242,0.5-2.906c0.942-0.666,2.244-0.439,2.908,0.501   l0.315,0.463c1.439,2.126,2.507,3.115,4.308,2.635c0.358-0.096,1.169-0.271,2.26-0.505c3.227-0.692,13.042-2.796,14.862-4.272   c0.269-0.216,0.685-0.647,0.465-1.116c-0.135-0.277-0.493-0.533-1.092-0.407c-0.688,0.143-1.801,0.434-3.13,0.777   c-9.164,2.385-13.292,3.129-15.131,1.57c-0.744-0.629-1.377-1.468-2.047-2.358c-0.896-1.193-2.015-2.678-2.983-2.816   c-1.118-0.156-3.69,0.566-4.797,1.868c-0.466,0.548-0.437,0.927-0.334,1.252l0.136,0.44c0.924,2.973,3.737,12.023,4.96,14.341   c1.291,2.447,3.694,5.612,9.588,5.025c7.592-0.777,22.161-1.82,22.308-1.83c1.045-0.056,2.004,0.657,2.199,1.698l3.375,18.143   c0.21,1.133-0.536,2.222-1.668,2.432C88.945,99.762,88.819,99.774,88.693,99.774z"/>
	<path d="M93.002,98.564c-2.899,0-6.28-1.863-7.622-7.311c-0.275-1.12,0.405-2.249,1.525-2.525c1.114-0.273,2.248,0.407,2.523,1.527   c0.723,2.928,2.177,4.423,4.014,4.102c1.226-0.216,2.45-1.296,2.315-2.556c-0.495-4.613-2.933-14.359-4.124-17.624   c-0.067-0.173-0.749-1.723-3.122-1.542c-3.513,0.255-8.866,0.741-13.369,1.153c-3.415,0.312-6.346,0.578-7.637,0.668   c-4.293,0.325-6.713-4.062-7.468-6.685c-0.32-1.107,0.319-2.265,1.425-2.582c1.106-0.317,2.259,0.315,2.581,1.418   c0.238,0.808,1.434,3.745,3.173,3.688c1.276-0.088,4.17-0.353,7.547-0.662c4.529-0.411,9.913-0.901,13.447-1.158   c4.457-0.298,6.71,2.535,7.343,4.274c1.257,3.45,3.811,13.575,4.351,18.607c0.352,3.301-2.222,6.488-5.741,7.107   C93.79,98.532,93.401,98.564,93.002,98.564z"/>
	<path d="M85.016,77.482l-32.482,4.778c-1.175-7.488-5.655-30.167-17.202-33.387c-1.11-0.31-2.259,0.34-2.569,1.449   c-0.31,1.11,0.339,2.259,1.449,2.568c8.647,2.413,13.256,23.036,14.417,31.472l-5,12.553c-0.426,1.071,0.096,2.285,1.166,2.71   c0.253,0.101,0.514,0.149,0.771,0.149c0.829,0,1.613-0.497,1.939-1.315l4.756-11.942l33.361-4.908   c1.141-0.167,1.927-1.228,1.76-2.366C87.215,78.102,86.14,77.312,85.016,77.482z"/>
	<path d="M66.021,6.417c0.062-0.69-0.184-1.378-0.69-1.934C63.187,2.137,52.563,0,43.043,0c-5.81,0-11.035,0.725-15.531,2.155   C9.478,7.894,0.568,26.474,0.198,27.262c-0.353,0.752-0.226,1.643,0.324,2.266c0.402,0.457,0.976,0.707,1.564,0.707   c0.215,0,0.432-0.034,0.644-0.102c9.553-3.099,17.641-5.758,24.522-8.057c-0.888,13.683-4.302,66.823-4.297,75.612   c0.001,1.153,0.934,2.086,2.085,2.086h0.001c1.151-0.002,2.085-0.938,2.084-2.088c-0.005-8.967,3.758-67.2,4.399-77.044   C65.763,9.112,65.896,7.793,66.021,6.417z M28.875,17.084c-0.014,0.005-0.027,0.009-0.041,0.013   c-7.522,2.541-15.308,5.123-22.222,7.384c3.655-5.609,11.085-14.826,22.165-18.351c4.087-1.302,8.886-1.96,14.267-1.96   c6.873,0,12.923,1.091,16.377,2.068C53.837,8.515,41.747,12.737,28.875,17.084z"/>
	<path d="M74.424,48.957l-2.377-6.31l-4.438-1.086c-0.556-0.139-1.122,0.205-1.261,0.766c-0.136,0.559,0.206,1.123,0.766,1.26   l3.369,0.824l1.938,5.15l-4.379,1.321l3.418,6.843l5.453-1.25l0.521-8.427L74.424,48.957z"/>
	<path d="M82.481,11.803c-1.034,0-1.935-0.771-2.064-1.826c-0.173-1.366-0.03-3.918-0.015-4.204   c0.067-1.149,1.033-2.057,2.206-1.959c1.148,0.067,2.024,1.053,1.959,2.204c-0.055,0.935-0.106,2.695-0.013,3.441   c0.143,1.142-0.668,2.185-1.811,2.329C82.657,11.798,82.569,11.803,82.481,11.803z"/>
	<path d="M67.697,24.688c-1.165,0-2.175-0.214-2.315-0.244c-1.126-0.247-1.837-1.359-1.591-2.484   c0.248-1.125,1.368-1.839,2.484-1.589c0.289,0.062,1.21,0.21,1.9,0.12c1.126-0.145,2.185,0.665,2.327,1.81   c0.145,1.143-0.663,2.185-1.808,2.329C68.361,24.671,68.022,24.688,67.697,24.688z"/>
	<path d="M96.578,24.472c-0.924,0-1.723-0.064-1.854-0.075c-1.147-0.098-1.998-1.106-1.9-2.253c0.096-1.146,1.111-2.01,2.252-1.903   c0.44,0.036,1.764,0.11,2.578,0.009c1.124-0.138,2.188,0.666,2.33,1.81c0.143,1.143-0.666,2.185-1.809,2.329   C97.67,24.451,97.104,24.472,96.578,24.472z"/>
	<path d="M82.517,41.164c-1.037,0-1.933-0.771-2.067-1.826c-0.171-1.366-0.028-3.918-0.012-4.204   c0.067-1.15,1.026-2.042,2.203-1.959c1.15,0.067,2.028,1.053,1.961,2.203c-0.055,0.935-0.107,2.695-0.014,3.441   c0.145,1.143-0.664,2.185-1.809,2.329C82.691,41.159,82.604,41.164,82.517,41.164z"/>
	<path d="M74.638,15.105c-0.731,0-1.44-0.385-1.823-1.068c-0.68-1.218-2.235-2.178-2.777-2.446c-1.03-0.507-1.46-1.754-0.955-2.787   c0.501-1.033,1.739-1.468,2.777-0.964c0.318,0.154,3.15,1.577,4.597,4.163c0.562,1.005,0.201,2.276-0.805,2.838   C75.33,15.02,74.981,15.105,74.638,15.105z"/>
	<path d="M90.337,15.105c-0.694,0-1.371-0.345-1.768-0.976c-0.613-0.976-0.32-2.263,0.655-2.875c0.613-0.385,1.597-1.74,2.071-2.571   c0.57-0.999,1.845-1.347,2.845-0.776c1,0.571,1.347,1.845,0.776,2.845c-0.275,0.481-1.735,2.942-3.473,4.033   C91.101,15.002,90.716,15.105,90.337,15.105z"/>
	<path d="M69.182,35.796c-0.727,0-1.436-0.382-1.818-1.062c-0.564-1.003-0.21-2.273,0.792-2.84c1.09-0.616,2.527-1.675,2.849-2.209   c0.591-0.989,1.874-1.308,2.859-0.718c0.99,0.591,1.312,1.873,0.719,2.86c-1.062,1.775-3.834,3.395-4.38,3.701   C69.88,35.709,69.528,35.796,69.182,35.796z"/>
	<path d="M94.872,35.796c-1.279,0-3.788-0.704-4.58-3.411c-0.324-1.105,0.31-2.264,1.415-2.587c1.108-0.329,2.263,0.31,2.587,1.415   c0.124,0.42,0.56,0.432,0.562,0.414c1.173-0.044,2.105,0.89,2.13,2.042c0.022,1.151-0.892,2.104-2.044,2.128   C94.921,35.796,94.896,35.796,94.872,35.796z"/>
</g>
</svg>